# xmcd
#
# Track frame offsets: 
#        150
#        17046
#        32811
#        47889
#        60529
#        75667
#        89706
#        105656
#        121925
#        136393
#
# Disc length: 2112 seconds
#
# Revision: 0
# Processed by: cddbd v1.5.2PL0 Copyright (c) Steve Scherf et al.
# Submitted via: ExactAudioCopy v1.1
#
DISCID=82083e0a
DTITLE=Jan Gerfast - Hippies United
DYEAR=2013
DGENRE=Blues Rock
TTITLE0=Nothing To Lose
TTITLE1=Looking Out Of my Window
TTITLE2=I Wanna Love You
TTITLE3=Moving On In Live
TTITLE4=Blues Companion
TTITLE5=Rolling Like A Stone
TTITLE6=Shaking The Ground
TTITLE7=Nothing To Lose
TTITLE8=Voodoo Man
TTITLE9=Foot The Bill
EXTD=
EXTT0=
EXTT1=
EXTT2=
EXTT3=
EXTT4=
EXTT5=
EXTT6=
EXTT7=
EXTT8=
EXTT9=
PLAYORDER=
